<svg width="144" height="118" viewBox="0 0 144 118" fill="none" xmlns="http://www.w3.org/2000/svg">
<path d="M66.7429 27.2489C34.014 -1.40567 2.50085 3.00142 2.50085 3.00142L2.50968 25.6359C2.50085 49.607 2.50968 78.1859 2.50968 78.1859V96.7746C45.3436 99.1988 66.7517 115.372 66.7517 115.372H76.4426C107.55 96.7747 140.675 97.5851 140.675 97.5851V75.7522V27.2489V2.7457C87.3493 7.75217 76.8478 27.2489 76.8478 27.2489H66.7429Z" stroke="#2DA866" stroke-width="5"/>
<path d="M43.3066 13.1023C43.3066 13.1023 59.1645 14.8652 59.9486 52.0605C60.7326 89.2562 53.2353 98.6605 53.2353 98.6165C52.3577 100.531 51.0865 102.239 49.5047 103.628C47.923 105.018 46.0662 106.058 44.0555 106.682L48.4605 106.187C48.4605 106.187 54.6274 105.042 60.7239 95.9987C60.7239 95.9987 66.6969 87.4666 69.1021 68.0936C71.5072 48.72 64.4504 31.5237 64.4504 31.5237C64.4504 31.5237 58.2835 15.0943 46.8305 13.1023H43.3066Z" fill="#2DA866"/>
<path d="M99.0485 13.1023C99.0485 13.1023 83.9042 14.8652 83.1466 52.0605C82.3889 89.2562 89.5955 98.6605 89.5426 98.6165C90.3608 100.506 91.5686 102.2 93.0867 103.591C94.6049 104.98 96.3994 106.034 98.3525 106.682L94.1413 106.187C94.1413 106.187 88.274 105.042 82.4242 95.9987C82.4242 95.9987 76.7242 87.4666 74.4248 68.0936C72.1253 48.72 78.8297 31.5237 78.8297 31.5237C78.8297 31.5237 84.706 15.0943 95.6567 13.1023H99.0485Z" fill="#2DA866"/>
<path d="M92.1167 104.001C92.1167 104.001 117.155 98.0747 105.697 82.0455C104.424 80.5886 102.622 78.7836 100.502 77.1628C95.4094 73.2675 85.3267 67.4733 75.1416 62.373L59.2273 52.9012L35.6743 35.4145" stroke="#2DA866" stroke-width="2"/>
<path d="M46.2156 24.3676C45.7574 24.5114 45.1661 24.6788 44.9161 24.7582C44.1389 24.9728 41.7494 25.6797 38.6431 26.5987C38.4768 26.6483 37.7711 26.8518 37.085 27.0576C35.777 27.4371 35.506 27.5239 34.7473 27.7509C34.4874 27.8289 33.7706 28.041 33.1374 28.2233C32.5142 28.4069 31.8084 28.6104 31.5793 28.6822C31.3515 28.7443 31.0818 28.8212 30.9685 28.8473C30.8353 28.871 30.5282 28.6828 29.947 28.2005C28.2402 26.7782 26.2215 25.2875 25.5345 24.9323C24.8278 24.5748 23.8144 24.3497 23.3118 24.4479C22.532 24.6022 22.209 25.2735 22.4142 26.2903C22.5993 27.2244 23.007 27.7354 24.5864 28.9717C25.3157 29.5525 26.055 30.1342 26.2277 30.2758C26.9633 30.8873 27.484 31.292 27.9886 31.6647C28.2724 31.88 28.5033 32.1187 28.4924 32.2075C28.4658 32.5047 28.4955 36.1639 28.5375 37.6112C28.548 38.0131 28.5522 39.0352 28.5598 39.8675C28.5576 40.6985 28.5636 42.0311 28.5748 42.8337C28.5861 43.6363 28.6032 44.9605 28.6009 45.7914C28.6097 46.6138 28.6288 47.6778 28.6407 48.1499L28.6558 49.0031L29.8428 49.9307C30.4908 50.4412 31.0533 50.8311 31.0865 50.805C31.185 50.7371 31.6473 48.6909 32.8575 43.0113C33.1301 41.7729 33.4247 40.4373 33.5239 40.0388C33.6329 39.6417 33.8456 38.6464 34.0167 37.8262C34.1767 37.0146 34.3653 36.2967 34.4145 36.2227C34.4956 36.1325 34.8607 36.3378 36.0156 37.1212C38.6755 38.9314 41.8537 41.086 42.3238 41.4143C42.8778 41.7931 42.8615 41.681 42.7482 44.5513L42.6669 46.6745L43.4332 47.2798C43.8996 47.6377 44.2438 47.8504 44.3103 47.7985C44.3657 47.7552 44.5302 47.3949 44.6897 46.994C44.8504 46.5832 45.1117 45.9244 45.2724 45.5135C45.4418 45.1137 45.7081 44.4155 45.8724 43.9751C46.0367 43.5346 46.2221 43.0867 46.2958 42.9756C46.3684 42.8745 47.3504 42.0541 48.4702 41.1706C49.5901 40.2872 50.5143 39.5298 50.5216 39.4706C50.5337 39.3719 49.1271 38.3572 48.9397 38.3342C48.8806 38.3268 48.5911 38.4013 48.2992 38.4956C48.0073 38.5897 47.3497 38.809 46.8385 38.9765C46.3274 39.1438 45.5761 39.3917 45.1783 39.5328C44.7806 39.6741 44.3875 39.7758 44.2988 39.7649C44.2101 39.754 43.6042 39.3087 42.9478 38.7872C41.7828 37.8422 41.6199 37.702 40.6289 36.8887C40.1192 36.4754 38.2805 34.9868 37.2316 34.1564C36.3395 33.4355 36.3358 33.4651 37.0572 33.0532C37.4118 32.8566 38.7353 32.1084 40.0057 31.3838C41.2762 30.659 42.9764 29.6968 43.784 29.2357C49.7635 25.8767 49.6011 25.9768 49.4295 25.8254C49.3382 25.7541 48.815 25.3691 48.2524 24.9792C47.6997 24.5907 47.2024 24.2389 47.1481 24.1921C47.1037 24.1466 46.6836 24.225 46.2156 24.3676Z" fill="#2DA866"/>
</svg>
